<svg id="visual" viewBox="0 0 960 540" width="960" height="540" xmlns="http://www.w3.org/2000/svg" xmlns:xlink="http://www.w3.org/1999/xlink" version="1.1"><g stroke-width="1" stroke-linejoin="bevel"><path d="M329 266L302 0L0 247Z" fill="#19a7ce" stroke="#19a7ce"></path><path d="M302 0L0 0L0 247Z" fill="#0198c9" stroke="#0198c9"></path><path d="M0 247L291 540L329 266Z" fill="#53a0c4" stroke="#53a0c4"></path><path d="M0 247L0 540L291 540Z" fill="#008cc3" stroke="#008cc3"></path><path d="M615 540L648 259L329 266Z" fill="#0094c7" stroke="#0094c7"></path><path d="M329 266L658 0L302 0Z" fill="#0089c1" stroke="#0089c1"></path><path d="M648 259L658 0L329 266Z" fill="#12a3cd" stroke="#12a3cd"></path><path d="M291 540L615 540L329 266Z" fill="#0090c5" stroke="#0090c5"></path><path d="M960 540L960 245L648 259Z" fill="#059cca" stroke="#059cca"></path><path d="M648 259L960 245L658 0Z" fill="#0089c1" stroke="#0089c1"></path><path d="M960 245L960 0L658 0Z" fill="#12a3cd" stroke="#12a3cd"></path><path d="M615 540L960 540L648 259Z" fill="#12a3cd" stroke="#12a3cd"></path></g></svg>